<?xml version="1.0" encoding="UTF-8" standalone="no"?>
<!-- Created with Inkscape (http://www.inkscape.org/) -->

<svg
   width="256"
   height="256"
   viewBox="0 0 67.733326 67.733327"
   version="1.1"
   id="svg1"
   xml:space="preserve"
   xmlns:xlink="http://www.w3.org/1999/xlink"
   xmlns="http://www.w3.org/2000/svg"
   xmlns:svg="http://www.w3.org/2000/svg"><defs
     id="defs1"><linearGradient
       id="linearGradient20"><stop
         style="stop-color:#000000;stop-opacity:0.71973699;"
         offset="0"
         id="stop20" /><stop
         style="stop-color:#ffffff;stop-opacity:0;"
         offset="1"
         id="stop21" /></linearGradient><linearGradient
       id="linearGradient16"><stop
         style="stop-color:#6c6b45;stop-opacity:1;"
         offset="0"
         id="stop16" /><stop
         style="stop-color:#c4be7e;stop-opacity:1;"
         offset="1"
         id="stop17" /></linearGradient><filter
       style="color-interpolation-filters:sRGB"
       id="filter9"
       x="-0.14161514"
       y="-0.1180134"
       width="1.2832304"
       height="1.2802206"><feGaussianBlur
         stdDeviation="0.2295615"
         id="feGaussianBlur9" /></filter><linearGradient
       xlink:href="#linearGradient16"
       id="linearGradient17"
       x1="2.6499135"
       y1="8.8495436"
       x2="8.1264877"
       y2="4.2333331"
       gradientUnits="userSpaceOnUse"
       gradientTransform="matrix(0.96551718,0,0,0.64396282,0.0873082,2.5033026)" /><linearGradient
       xlink:href="#linearGradient20"
       id="linearGradient21"
       x1="6.614583"
       y1="5.0270829"
       x2="6.61131"
       y2="4.4095497"
       gradientUnits="userSpaceOnUse" /></defs><g
     id="g25"
     transform="matrix(8,0,0,8,-16.93343,-2.1166412)"><path
       id="rect19-5"
       style="display:inline;fill:#292817;fill-opacity:1;fill-rule:evenodd;stroke-width:1.03384;stroke-linecap:square;stroke-miterlimit:0;paint-order:stroke fill markers"
       d="M 8.9916986,3.9656498 3.7041665,3.9687498 3.0690632,5.027083 H 9.6340366 Z" /><g
       id="layer1"
       transform="translate(2.1166683)"
       style="display:inline"><path
         id="path2"
         style="display:none;opacity:1;fill:none;fill-opacity:1;stroke:#000000;stroke-width:0.396875;stroke-linecap:butt;stroke-linejoin:miter;stroke-dasharray:none;stroke-opacity:1;filter:url(#filter9)"
         d="m 2.91043,1.05833 c -0.92604,0 -1.32292,0.39688 -1.32292,1.32292 V 4.7625 C 1.5836,5.72753 1.98439,6.08542 2.91043,6.08542 V 7.40833 L 4.23335,6.08542 h 1.32291 c 0.92605,0 1.32292,-0.39688 1.32292,-1.32292 V 2.38125 c 0,-0.92604 -0.39687,-1.32292 -1.32292,-1.32292 z" /><path
         id="path2-2"
         style="display:inline;fill:#ffffff;fill-opacity:1;stroke:#008bcc;stroke-width:0.529167;stroke-linecap:butt;stroke-linejoin:miter;stroke-dasharray:none;stroke-opacity:1"
         d="m 2.91043,1.05833 c -0.92604,0 -1.32292,0.39688 -1.32292,1.32292 V 4.7625 C 1.5836,5.72753 1.98439,6.08542 2.91043,6.08542 V 7.40833 L 4.23335,6.08542 h 1.32291 c 0.92605,0 1.32292,-0.39688 1.32292,-1.32292 V 2.38125 c 0,-0.92604 -0.39687,-1.32292 -1.32292,-1.32292 z" /><path
         style="color:#000000;display:inline;fill:#a6c83c;stroke-linecap:square;stroke-miterlimit:0;-inkscape-stroke:none;paint-order:stroke fill markers"
         d="M 5.97819,1.61302 C 5.79374,1.55227 5.56944,1.60474 5.38701,1.78482 L 5.29166,1.87737 5.4925,2.05301 5.58582,1.96047 C 5.70817,1.83968 5.8034,1.83625 5.8869,1.86375 5.97039,1.89125 6.02609,1.95002 6.02687,2.01908 6.02857,2.16794 6.00936,2.25191 5.86566,2.37036 5.72197,2.48881 5.50876,2.62152 5.29166,2.82363 v 0.21908 h 0.9209 0.13795 V 2.77812 H 5.76423 C 5.86041,2.70679 5.96431,2.63218 6.04824,2.563 6.21481,2.42569 6.30545,2.25244 6.30277,2.01719 6.30065,1.83033 6.16264,1.67378 5.97819,1.61302 Z"
         id="path6" /><g
         id="g6"><path
           style="opacity:1;fill:none;fill-opacity:1;stroke:#00b9e8;stroke-width:0.529167;stroke-linecap:butt;stroke-linejoin:miter;stroke-dasharray:none;stroke-opacity:1"
           d="m 2.77814,2.24896 h 0.92605 c 0.52916,0 1.05833,0.13229 1.05833,0.79375 0,0.66146 -0.5291,0.79375 -1.05833,0.79375 H 2.77814"
           id="path3" /><path
           style="opacity:1;fill:none;fill-opacity:1;stroke:#00b9e8;stroke-width:0.529167;stroke-linecap:square;stroke-linejoin:miter;stroke-dasharray:none;stroke-opacity:1"
           d="M 2.77814,4.89479 V 2.24896"
           id="path4" /><path
           id="path5"
           style="color:#000000;fill:#00b9e8;-inkscape-stroke:none"
           d="M 4.05455,3.55275 3.61892,3.85558 4.52274,5.15937 h 0.64234 z" /></g></g><path
       id="rect20"
       style="display:inline;opacity:1;mix-blend-mode:darken;fill:url(#linearGradient21);fill-rule:evenodd;stroke-width:0.405667;stroke-linecap:square;stroke-miterlimit:0;paint-order:stroke fill markers"
       d="M 3.4395831,4.4095496 H 9.2604159 L 9.6340366,5.027083 H 3.0690632 Z" /><path
       id="rect1"
       style="display:inline;opacity:1;fill:url(#linearGradient17);fill-rule:evenodd;stroke-width:0.312942;stroke-linecap:square;stroke-miterlimit:0;paint-order:stroke fill markers"
       d="M 2.6458452,5.2916631 3.0690632,5.027083 h 6.5649734 l 0.4201414,0.2645801 -4e-5,2.9104165 H 2.6458452 Z" /><path
       id="rect18"
       style="display:inline;opacity:1;fill:#d3cd89;fill-opacity:1;fill-rule:evenodd;stroke-width:0.396875;stroke-linecap:square;stroke-miterlimit:0;paint-order:stroke fill markers"
       d="M 3.4395831,3.9656491 2.6458452,5.2916631 H 10.054178 L 9.2604159,3.9687497 V 4.4095496 L 9.6340365,5.0270829 H 3.0690631 l 0.37052,-0.6175333 z" /><rect
       style="display:inline;opacity:0.295686;mix-blend-mode:darken;fill:#000000;fill-opacity:0.498648;fill-rule:evenodd;stroke:none;stroke-width:0.251424;stroke-linecap:square;stroke-miterlimit:0;stroke-dasharray:none;stroke-opacity:1;paint-order:stroke fill markers"
       id="rect25"
       width="1.0583324"
       height="3.1749966"
       x="5.816906"
       y="5.0270829" /></g></svg>
